<svg width="40" height="40" viewBox="0 0 40 40" fill="none" xmlns="http://www.w3.org/2000/svg">
<path d="M30.7711 14.8437C30.3012 15.3105 29.6658 15.5726 29.0035 15.5726C28.3412 15.5726 27.7058 15.3105 27.2359 14.8437L25.1601 12.7679C24.6929 12.2982 24.4306 11.6625 24.4306 11C24.4306 10.3374 24.6929 9.70177 25.1601 9.23201L29.8586 4.53122C29.8679 4.52228 29.8748 4.51118 29.8788 4.4989C29.8827 4.48662 29.8836 4.47356 29.8813 4.46087C29.8789 4.44818 29.8735 4.43626 29.8655 4.42618C29.8574 4.4161 29.847 4.40817 29.8351 4.4031C26.8023 3.1031 22.8703 3.7656 20.3734 6.24451C17.9844 8.6156 17.8484 12.182 18.7234 15.2945C18.8477 15.7369 18.8474 16.2051 18.7225 16.6473C18.5976 17.0896 18.353 17.4887 18.0156 17.8008L4.99999 29.6875C4.61598 30.0279 4.30566 30.4434 4.08813 30.9082C3.87059 31.373 3.75043 31.8774 3.73503 32.3904C3.71963 32.9034 3.80932 33.4141 3.99858 33.8912C4.18784 34.3682 4.47268 34.8015 4.83558 35.1644C5.19847 35.5273 5.63176 35.8121 6.1088 36.0014C6.58584 36.1906 7.09656 36.2803 7.60954 36.2649C8.12252 36.2495 8.62693 36.1294 9.09176 35.9118C9.55659 35.6943 9.97201 35.384 10.3125 35L22.3328 21.9531C22.6409 21.6214 23.0334 21.3798 23.4683 21.2541C23.9032 21.1285 24.3641 21.1235 24.8015 21.2398C27.8906 22.0672 31.4062 21.9117 33.764 19.5843C36.3023 17.0843 36.85 12.6656 35.6195 10.1367C35.614 10.1256 35.6059 10.1161 35.5959 10.1087C35.586 10.1014 35.5744 10.0966 35.5622 10.0946C35.55 10.0926 35.5375 10.0936 35.5257 10.0973C35.514 10.1011 35.5033 10.1077 35.4945 10.1164L30.7711 14.8437Z" stroke="black" stroke-width="1.5" stroke-miterlimit="10" stroke-linecap="round"/>
<path d="M7.5 33.75C8.19036 33.75 8.75 33.1904 8.75 32.5C8.75 31.8096 8.19036 31.25 7.5 31.25C6.80964 31.25 6.25 31.8096 6.25 32.5C6.25 33.1904 6.80964 33.75 7.5 33.75Z" fill="black"/>
</svg>
