<svg width="41" height="40" viewBox="0 0 41 40" fill="none" xmlns="http://www.w3.org/2000/svg">
<path d="M20 34.2885C21.971 34.2893 23.9208 33.8812 25.7261 33.0901C27.5315 32.2989 29.1532 31.1418 30.4886 29.692L30.7451 29.4134L30.6733 29.0416C30.2482 26.8406 28.1656 25.6555 26.1176 25.0171C24.0133 24.3613 21.6164 24.1731 20 24.1731C18.3836 24.1731 15.9867 24.3613 13.8824 25.0173C11.8343 25.6557 9.75177 26.841 9.32668 29.0424L9.25488 29.4143L9.51149 29.6928C10.847 31.1424 12.4687 32.2993 14.2741 33.0903C16.0794 33.8812 18.029 34.2892 20 34.2885ZM20 34.2885C19.9999 34.2885 19.9998 34.2885 19.9997 34.2885L20 33.5385L20.0003 34.2885C20.0002 34.2885 20.0001 34.2885 20 34.2885ZM4.75 20C4.75 11.5919 11.5919 4.75 20 4.75C28.4081 4.75 35.25 11.5919 35.25 20C35.25 28.4081 28.4081 35.25 20 35.25C11.5919 35.25 4.75 28.4081 4.75 20ZM23.6475 11.6944C22.6134 11.0034 21.3976 10.6346 20.1538 10.6346C18.486 10.6346 16.8865 11.2971 15.7072 12.4765C14.5279 13.6558 13.8654 15.2553 13.8654 16.9231C13.8654 18.1668 14.2342 19.3826 14.9252 20.4168C15.6162 21.4509 16.5983 22.2569 17.7474 22.7329C18.8964 23.2088 20.1608 23.3334 21.3807 23.0907C22.6005 22.8481 23.721 22.2491 24.6005 21.3697C25.4799 20.4902 26.0788 19.3697 26.3215 18.1499C26.5641 16.9301 26.4396 15.6657 25.9636 14.5166C25.4877 13.3675 24.6817 12.3854 23.6475 11.6944Z" fill="#211211" stroke="#211211" stroke-width="1.5"/>
</svg>
