<svg width="41" height="40" viewBox="0 0 41 40" fill="none" xmlns="http://www.w3.org/2000/svg">
<g clip-path="url(#clip0_12_21)">
<path d="M20 37.6731C22.4379 37.6741 24.8495 37.1694 27.0824 36.1909C29.3154 35.2123 31.3211 33.7812 32.9728 31.9879L33.2294 31.7094L33.1575 31.3376C32.6474 28.6964 30.1406 27.245 27.5912 26.4504C24.9855 25.6383 22.0101 25.4038 20 25.4038C17.9899 25.4038 15.0145 25.6383 12.4088 26.4506C9.85932 27.2453 7.35254 28.697 6.84245 31.3386L6.77065 31.7104L7.02726 31.989C8.67914 33.7819 10.6849 35.2127 12.9179 36.1911C15.1507 37.1694 17.5622 37.674 20 37.6731ZM20 37.6731C19.9999 37.6731 19.9998 37.6731 19.9997 37.6731L20 36.9242L20.0003 37.6731C20.0002 37.6731 20.0001 37.6731 20 37.6731ZM0.75 20C0.75 9.38633 9.38633 0.75 20 0.75C30.6137 0.75 39.25 9.38633 39.25 20C39.25 30.6137 30.6137 39.25 20 39.25C9.38633 39.25 0.75 30.6137 0.75 20ZM24.4552 9.77392C23.1934 8.93079 21.7099 8.48077 20.1923 8.48077C18.1573 8.48077 16.2056 9.28918 14.7666 10.7282C13.3276 12.1671 12.5192 14.1188 12.5192 16.1538C12.5192 17.6714 12.9692 19.1549 13.8124 20.4168C14.6555 21.6786 15.8539 22.6621 17.2559 23.2428C18.658 23.8236 20.2008 23.9756 21.6893 23.6795C23.1777 23.3834 24.5449 22.6526 25.618 21.5795C26.6911 20.5064 27.4219 19.1392 27.7179 17.6508C28.014 16.1624 27.8621 14.6196 27.2813 13.2175C26.7006 11.8154 25.7171 10.617 24.4552 9.77392Z" stroke="#211211" stroke-width="1.5"/>
</g>
<defs>
<clipPath id="clip0_12_21">
<rect width="40" height="40" fill="white" transform="translate(0.00195312)"/>
</clipPath>
</defs>
</svg>

