<svg width="29" height="28" viewBox="0 0 29 28" fill="none" xmlns="http://www.w3.org/2000/svg">
<path d="M21.0707 21.1588C20.9047 21.1594 20.7402 21.1896 20.5848 21.248L20.5843 21.2482C20.5026 21.2789 19.7523 21.5607 18.972 21.7749C18.5292 21.8964 17.0788 22.265 15.9562 22.265C12.9971 22.265 10.2389 21.1294 8.18107 19.0704L8.17928 19.0687C7.17457 18.0701 6.3779 16.8822 5.83539 15.5737C5.29288 14.2652 5.01529 12.8621 5.01871 11.4456V11.4437C5.01869 10.7079 5.09796 9.97411 5.25515 9.25521L5.25549 9.25363C5.76696 6.89007 7.12396 4.73138 9.08311 3.18442C11.0972 1.60488 13.5834 0.74756 16.143 0.750006H16.1437C19.2115 0.750006 22.0599 1.92346 24.1752 4.0409C26.1721 6.04432 27.2606 8.67023 27.2518 11.4383L27.2518 11.44C27.2501 13.4984 26.6357 15.5096 25.4868 17.2174C25.4865 17.2179 25.4862 17.2183 25.4859 17.2188L25.4842 17.2212L25.4471 17.2714L25.4468 17.2717L25.4325 17.2909C25.4255 17.3003 25.4148 17.3148 25.403 17.3317L25.3815 17.3627L25.3631 17.3957L25.3577 17.4055C25.321 17.4686 25.2877 17.5335 25.2578 17.5999L25.1461 17.8484L25.2199 18.1106L26.2036 21.6069L26.2035 21.6069L26.2075 21.6203C26.2306 21.6968 26.2434 21.7759 26.2456 21.8558C26.2448 21.9521 26.2255 22.0475 26.1887 22.1366C26.151 22.2278 26.0957 22.3106 26.0259 22.3803C25.9562 22.4501 25.8733 22.5054 25.7822 22.5431C25.6933 22.5798 25.5982 22.5991 25.5021 22.6C25.3912 22.5966 25.2818 22.5734 25.1792 22.5312L25.1622 22.5242L25.1449 22.5181L21.6117 21.2655L21.6038 21.2623C21.4348 21.1925 21.2535 21.1573 21.0707 21.1588ZM21.0707 21.1588C21.0718 21.1588 21.073 21.1588 21.0741 21.1588L21.075 21.9088L21.0667 21.1588C21.068 21.1588 21.0693 21.1588 21.0707 21.1588Z" stroke="#211211" stroke-width="1.5"/>
<path d="M15.9145 24.8077L15.9069 24.8056C15.7996 24.7773 15.6634 24.7608 15.4892 24.7509C15.4432 24.7483 15.371 24.7454 15.2915 24.7423C15.1689 24.7375 15.029 24.732 14.9408 24.7256C14.9403 24.7255 14.9397 24.7255 14.9392 24.7255L14.9944 23.9775L15.9145 24.8077ZM15.9145 24.8077L15.9221 24.8095M15.9145 24.8077L15.9221 24.8095M15.9221 24.8095C15.9547 24.8174 15.9852 24.8323 16.0116 24.853C16.0369 24.8729 16.0577 24.8978 16.0729 24.9261C16.0881 24.958 16.094 24.9936 16.0898 25.0287C16.0856 25.0639 16.0716 25.0971 16.0493 25.1245C15.9863 25.1957 15.8764 25.2752 15.6991 25.3647C15.6123 25.4085 15.5207 25.4493 15.4208 25.4924C15.4024 25.5003 15.383 25.5087 15.363 25.5172C15.2832 25.5515 15.1935 25.59 15.1141 25.6272L15.114 25.6272C13.7489 26.2676 12.2592 26.5989 10.7514 26.5975H10.7507C9.54998 26.5975 8.26845 26.3567 7.0278 25.8953C6.74181 25.7874 6.42622 25.7878 6.14045 25.8964L6.14044 25.8964L6.13688 25.8978L2.79251 27.1884L2.78369 27.1918L2.77496 27.1954C2.68802 27.2315 2.5948 27.2501 2.50068 27.25H2.50058C2.32991 27.2499 2.1642 27.1931 2.02935 27.0889L2.01215 27.0743C2.01205 27.0742 2.01195 27.0741 2.01185 27.074C1.91041 26.9877 1.83381 26.8759 1.78991 26.7501C1.74597 26.6242 1.73639 26.4889 1.76215 26.358L1.76271 26.3552C1.82274 26.0439 1.90391 25.6221 1.99077 25.1707C2.12947 24.4498 2.28271 23.6535 2.38762 23.1112L2.39211 23.088L2.39513 23.0646C2.41298 22.9261 2.43787 22.7276 2.40356 22.5097C2.36687 22.2766 2.27463 22.0833 2.16802 21.9058L2.16809 21.9057L2.16213 21.8961C1.36191 20.6079 0.885977 19.1448 0.775104 17.6323C0.664231 16.1198 0.921727 14.6029 1.52553 13.2117L1.52602 13.2106C1.60745 13.0221 1.74753 12.8089 1.88551 12.6264C1.95149 12.5391 2.01119 12.4664 2.05376 12.4163C2.07494 12.3913 2.09159 12.3723 2.10231 12.3602L2.11367 12.3474L2.11535 12.3456L2.11556 12.3454L2.11562 12.3453L2.11563 12.3453L2.12003 12.3405L2.12503 12.3348C2.15862 12.2967 2.203 12.2698 2.25228 12.2576C2.30156 12.2453 2.3534 12.2484 2.4009 12.2663C2.4484 12.2843 2.4893 12.3163 2.51818 12.358C2.54705 12.3998 2.56252 12.4494 2.56253 12.5001L2.67174 12.5001C2.56253 12.5002 2.56253 12.5003 2.56253 12.5004L2.56253 12.5008L2.56253 12.5017L2.56254 12.5034L2.56256 12.507L2.56266 12.5146L2.56309 12.5317C2.56348 12.5441 2.56413 12.5588 2.56514 12.5763C2.56716 12.6112 2.5707 12.6588 2.5769 12.7234C2.58927 12.8522 2.61276 13.0544 2.65766 13.3667L2.65776 13.3674M15.9221 24.8095L2.65776 13.3674M2.65776 13.3674C3.06737 16.1982 4.38537 18.8194 6.41337 20.8365L2.65776 13.3674Z" stroke="#211211" stroke-width="1.5"/>
</svg>

