<svg width="29" height="29" viewBox="0 0 29 29" fill="none" xmlns="http://www.w3.org/2000/svg">
<path d="M14.1894 26.7837C15.9271 26.7844 17.6459 26.4246 19.2374 25.7272C20.8291 25.0297 22.2587 24.0097 23.4359 22.7315L23.6925 22.4529L23.6207 22.0811C23.238 20.1001 21.3675 19.0482 19.5702 18.488C17.7167 17.9103 15.6091 17.7452 14.1895 17.7452C12.7698 17.7452 10.6622 17.9103 8.80863 18.4881C7.01127 19.0484 5.14083 20.1005 4.75825 22.0818L4.68644 22.4537L4.94306 22.7322C6.12046 24.0102 7.5501 25.03 9.14167 25.7274C10.7331 26.4247 12.4519 26.7843 14.1894 26.7837ZM14.1894 26.7837C14.1893 26.7837 14.1892 26.7837 14.1891 26.7837L14.1895 26.0342L14.1898 26.7837C14.1897 26.7837 14.1895 26.7837 14.1894 26.7837ZM0.939453 14.1875C0.939453 6.88219 6.88415 0.9375 14.1895 0.9375C21.4948 0.9375 27.4395 6.88219 27.4395 14.1875C27.4395 21.4928 21.4948 27.4375 14.1895 27.4375C6.88415 27.4375 0.939453 21.4928 0.939453 14.1875ZM17.4331 6.84216C16.5128 6.22725 15.4309 5.89904 14.3241 5.89904C12.8399 5.89904 11.4165 6.48863 10.367 7.53812C9.31751 8.5876 8.72791 10.011 8.72791 11.4952C8.72791 12.602 9.05612 13.684 9.67104 14.6042C10.286 15.5245 11.16 16.2418 12.1825 16.6654C13.2051 17.0889 14.3303 17.1997 15.4158 16.9838C16.5014 16.7679 17.4985 16.2349 18.2811 15.4523C19.0638 14.6696 19.5968 13.6725 19.8127 12.5869C20.0286 11.5014 19.9178 10.3762 19.4942 9.35364C19.0707 8.33107 18.3534 7.45707 17.4331 6.84216Z" stroke="#211211" stroke-width="1.5"/>
</svg>

