<svg width="40" height="40" viewBox="0 0 40 40" fill="none" xmlns="http://www.w3.org/2000/svg">
<path d="M16.25 13.75V10.625C16.25 9.7962 16.5792 9.00134 17.1653 8.41529C17.7513 7.82924 18.5462 7.5 19.375 7.5L31.875 7.5C32.7038 7.5 33.4987 7.82924 34.0847 8.41529C34.6708 9.00134 35 9.7962 35 10.625L35 29.375C35 30.2038 34.6708 30.9987 34.0847 31.5847C33.4987 32.1708 32.7038 32.5 31.875 32.5H20C18.2742 32.5 16.25 31.1008 16.25 29.375V26.25M11.25 13.75L5 20L11.25 26.25M26.25 20L6.25 20" stroke="#211211" stroke-width="1.5" stroke-linecap="round" stroke-linejoin="round"/>
</svg>

